<svg xmlns="http://www.w3.org/2000/svg" width="128" height="128" viewBox="0 0 128 128"><rect width="128" height="128" ry="0" fill="green"/><path d="M89.704 17.442c-9.253 0-16.754 7.502-16.754 16.754 0 11.967 16.754 29.32 16.754 29.32s16.754-17.353 16.754-29.32c0-9.252-7.501-16.754-16.754-16.754zm0 10.766a5.992 5.992 0 0 1 5.988 5.988c0 3.305-2.683 6.696-5.988 6.696-3.305 0-5.988-3.39-5.988-6.696a5.992 5.992 0 0 1 5.988-5.988zm-37.82 1.8c-.488.013-.971.11-1.432.294L29.51 38.68a4.205 4.205 0 0 0-2.634 3.894v58.64c0 2.961 2.991 4.991 5.743 3.894l19.52-7.813 23.675 7.895a4.18 4.18 0 0 0 2.88-.082l20.942-8.377a4.199 4.199 0 0 0 2.635-3.894V61.783c-2.899 3.685-5.46 6.436-6.545 7.559l-6.021 6.233-6.021-6.233c-1.085-1.123-3.646-3.874-6.545-7.56v34.925l-25.131-8.288V38.704l14.357 4.688c-1.097-3.079-1.792-6.188-1.792-9.196 0-.075.017-.145.017-.22L53.332 30.22a4.181 4.181 0 0 0-1.448-.212z" fill="#fff"/></svg>
